<svg width="26" height="14" viewBox="0 0 26 14" fill="none" xmlns="http://www.w3.org/2000/svg">
<path d="M25.5493 7.82197L22.3436 1.41053C22.2135 1.14872 22.0129 0.928397 21.7645 0.774325C21.516 0.620253 21.2295 0.538546 20.9371 0.538391H5.34857C5.05622 0.538546 4.7697 0.620253 4.52125 0.774325C4.27279 0.928397 4.07224 1.14872 3.94214 1.41053L0.736423 7.82197C0.62697 8.04157 0.570462 8.28374 0.571423 8.52911V10.9491C0.570706 11.3163 0.698581 11.6721 0.932852 11.9548C1.27908 12.3517 1.7067 12.6694 2.18664 12.8863C2.66658 13.1033 3.1876 13.2143 3.71428 13.212C4.57367 13.2133 5.40685 12.9161 6.07142 12.3713C6.73599 12.9164 7.56899 13.2144 8.42857 13.2144C9.28815 13.2144 10.1211 12.9164 10.7857 12.3713C11.4503 12.9164 12.2833 13.2144 13.1429 13.2144C14.0024 13.2144 14.8354 12.9164 15.5 12.3713C16.1646 12.9164 16.9976 13.2144 17.8571 13.2144C18.7167 13.2144 19.5497 12.9164 20.2143 12.3713C20.9561 12.9804 21.9052 13.2781 22.8621 13.2019C23.8189 13.1257 24.7089 12.6815 25.345 11.9627C25.5821 11.6811 25.7128 11.3251 25.7143 10.957V8.52911C25.7153 8.28374 25.6587 8.04157 25.5493 7.82197ZM10.7857 8.70982V9.90411L10.1414 10.7527C9.94364 11.0223 9.68516 11.2415 9.3869 11.3926C9.08864 11.5437 8.75899 11.6224 8.42464 11.6224C8.09029 11.6224 7.76064 11.5437 7.46238 11.3926C7.16412 11.2415 6.90564 11.0223 6.70785 10.7527L6.07142 9.87268V8.70982L8.10643 2.10982H11.5714L10.7857 8.70982ZM20.2143 9.87268L19.5779 10.7527C19.3801 11.0223 19.1216 11.2415 18.8233 11.3926C18.5251 11.5437 18.1954 11.6224 17.8611 11.6224C17.5267 11.6224 17.1971 11.5437 16.8988 11.3926C16.6006 11.2415 16.3421 11.0223 16.1443 10.7527L15.5 9.87268V8.70982L14.7143 2.10982H18.2107L20.2143 8.70982V9.87268Z" fill="#158A8A"/>
</svg>
